<svg version="1.1" xmlns="http://www.w3.org/2000/svg" xmlns:xlink="http://www.w3.org/1999/xlink" width="31" height="31" viewBox="0 0 31 31"><g id="fa-facebook-squa"><path id="fa-facebook-squa" d="M3.000,30.000 C0.014,24.351 0.896,12.712 1.000,4.000 C1.930,2.908 1.355,3.845 2.000,2.000 C3.868,1.375 2.907,1.926 4.000,1.000 C12.318,0.908 22.230,0.671 29.000,2.000 C29.000,2.667 29.000,3.333 29.000,4.000 C31.917,8.007 30.121,21.852 30.000,28.000 C24.156,31.086 11.944,30.104 3.000,30.000 zM25.000,5.000 C23.811,4.091 23.349,4.185 21.000,4.000 C19.908,4.930 20.845,4.355 19.000,5.000 C18.324,6.873 18.030,8.910 18.000,12.000 C17.000,12.000 16.000,12.000 15.000,12.000 C15.000,13.333 15.000,14.667 15.000,16.000 C16.000,16.000 17.000,16.000 18.000,16.000 C18.000,20.000 18.000,24.000 18.000,28.000 C19.333,28.000 20.667,28.000 22.000,28.000 C22.000,24.000 22.000,20.000 22.000,16.000 C25.196,15.321 23.694,16.531 25.000,14.000 C25.782,13.377 25.287,13.958 25.000,13.000 C23.886,12.133 24.128,12.365 22.000,12.000 C22.000,10.667 22.000,9.333 22.000,8.000 C23.333,8.000 24.667,8.000 26.000,8.000 C25.664,5.860 25.864,6.109 25.000,5.000 z" fill="#FFFFFF" /></g></svg>