<svg version="1.1" xmlns="http://www.w3.org/2000/svg" xmlns:xlink="http://www.w3.org/1999/xlink" width="35" height="28" viewBox="0 0 35 28"><g id="fa-twitter"><path id="fa-twitter" d="M34.000,1.000 C34.000,1.333 34.000,1.667 34.000,2.000 C29.856,8.492 31.038,19.373 22.000,25.000 C16.959,29.528 8.174,27.480 2.000,26.000 C1.667,25.333 1.333,24.667 1.000,24.000 C5.077,24.087 7.087,23.913 9.000,22.000 C2.652,18.748 1.892,11.981 2.000,3.000 C2.333,3.000 2.667,3.000 3.000,3.000 C3.000,2.667 3.000,2.333 3.000,2.000 C7.590,4.617 10.870,7.613 17.000,9.000 C17.155,2.632 19.094,3.126 22.000,0.000 C27.612,0.466 28.767,1.917 34.000,1.000 z" fill="#FFFFFF" /></g></svg>