<svg version="1.1" xmlns="http://www.w3.org/2000/svg" xmlns:xlink="http://www.w3.org/1999/xlink" width="41" height="29" viewBox="0 0 41 29"><g id="fa-youtube-play"><path id="fa-youtube-play" d="M40.000,7.000 C40.462,7.618 40.777,8.405 41.000,9.290 C41.000,9.290 41.000,18.722 41.000,18.722 C40.641,21.557 40.158,24.229 40.000,26.000 C39.333,26.333 38.667,26.667 38.000,27.000 C37.016,27.868 34.870,28.533 32.104,29.000 C32.104,29.000 8.997,29.000 8.997,29.000 C6.185,28.531 3.998,27.865 3.000,27.000 C-0.897,23.062 0.797,7.665 2.000,2.000 C2.667,2.000 3.333,2.000 4.000,2.000 C4.908,1.262 7.098,0.752 8.000,0.000 C18.350,-0.051 29.019,0.643 38.000,1.000 C39.221,3.265 39.702,3.243 40.000,7.000 zM16.000,7.000 C14.719,10.592 14.938,16.896 15.000,22.000 C15.333,22.000 15.667,22.000 16.000,22.000 C16.000,22.333 16.000,22.667 16.000,23.000 C20.143,21.111 26.559,17.715 29.000,14.000 C24.363,11.768 21.497,8.416 16.000,7.000 z" fill="#000000" /></g></svg>