<svg version="1.1" xmlns="http://www.w3.org/2000/svg" xmlns:xlink="http://www.w3.org/1999/xlink" width="35" height="35" viewBox="0 0 35 35"><g id="icon-search"><g id="icon-search"><path id="search" d="M24.690,27.011 C22.070,29.270 18.660,30.646 14.921,30.646 C6.756,30.646 0.132,24.129 0.000,16.042 C0.000,16.042 0.000,15.556 0.000,15.556 C0.132,7.469 6.756,0.952 14.921,0.952 C23.168,0.952 29.854,7.599 29.854,15.799 C29.854,19.517 28.470,22.907 26.198,25.512 C26.198,25.512 34.875,34.138 34.875,34.138 L34.008,35.000 L32.725,35.000 C32.725,35.000 24.690,27.011 24.690,27.011 zM27.721,15.799 C27.721,8.771 21.990,3.073 14.921,3.073 C7.852,3.073 2.121,8.771 2.121,15.799 C2.121,22.827 7.852,28.525 14.921,28.525 C21.990,28.525 27.721,22.827 27.721,15.799 z" fill="#FFFFFF" /></g></g></svg>