<svg xmlns="http://www.w3.org/2000/svg" width="16" height="14" viewBox="0 0 16 14">
  <defs>
    <style>
      .cls-1 {
        fill: #cdcdcd;
        fill-rule: evenodd;
      }
    </style>
  </defs>
  <path id="svg-icon-ruby" class="cls-1" d="M378,997a0.981,0.981,0,0,1-.224.6l0.013,0.01-7,9-0.013-.01a0.954,0.954,0,0,1-1.553,0l-0.012.01-7-9,0.012-.01A0.98,0.98,0,0,1,362,997a1,1,0,0,1,.293-0.707h0l3-3h0A1,1,0,0,1,366,993h8a1,1,0,0,1,.707.293h0l3,3h0A1,1,0,0,1,378,997Zm-4.414-2h-7.172l-2.083,2.083L370,1004.37l5.669-7.288Z" transform="translate(-362 -993)"/>
</svg>
