<svg xmlns="http://www.w3.org/2000/svg" width="11" height="11.44" viewBox="0 0 11 11.44">
  <defs>
    <style>
      .cls-1 {
        fill: #fff;
        fill-rule: evenodd;
      }
    </style>
  </defs>
  <path id="checked.svg" class="cls-1" d="M32.319,1681.25a0.956,0.956,0,0,1-.66-0.27l-2.343-2.35a0.933,0.933,0,0,1,1.32-1.32l1.542,1.54,4-5.94a0.933,0.933,0,0,1,1.55,1.04l-4.63,6.89a0.909,0.909,0,0,1-.685.4Zm3.28-1.93v2.76a0.625,0.625,0,0,1-.622.63H28.754a0.625,0.625,0,0,1-.622-0.63v-6.22a0.623,0.623,0,0,1,.622-0.62h4.332l0.829-1.25H28.754a1.871,1.871,0,0,0-1.867,1.87v6.22a1.871,1.871,0,0,0,1.867,1.87h6.223a1.871,1.871,0,0,0,1.867-1.87v-4.62Z" transform="translate(-26.875 -1672.5)"/>
</svg>
