<svg xmlns="http://www.w3.org/2000/svg" width="22.41" height="18.31" viewBox="0 0 22.41 18.31">
  <defs>
    <style>
      .cls-1 {
        fill: #fff;
        fill-rule: evenodd;
      }
    </style>
  </defs>
  <path id="tw.svg" class="cls-1" d="M1074.94,1496.65a4.96,4.96,0,0,1,2.87-5.38,4.848,4.848,0,0,1,5.08,1.17,6.337,6.337,0,0,0,2.92-1.12,4.475,4.475,0,0,1-1.92,2.51,4.826,4.826,0,0,0,2.49-.66,5.751,5.751,0,0,1-2.26,2.44,14.47,14.47,0,0,1-.91,5.44,17.919,17.919,0,0,1-3.5,5.04,14.28,14.28,0,0,1-5.88,2.91,13.608,13.608,0,0,1-9.88-1.69s4.54,0.41,6.69-2.01a4.456,4.456,0,0,1-4.18-3.1l2.07-.01a4.9,4.9,0,0,1-3.74-4.65,3.767,3.767,0,0,0,2.08.51s-3.45-1.77-1.45-6.28A12.461,12.461,0,0,0,1074.94,1496.65Z" transform="translate(-1063.97 -1491)"/>
</svg>
