<?xml version="1.0" encoding="UTF-8" standalone="no"?>
<svg width="32px" height="32px" viewBox="0 0 32 32" version="1.1" xmlns="http://www.w3.org/2000/svg" xmlns:xlink="http://www.w3.org/1999/xlink">
    <!-- Generator: Sketch 39.1 (31720) - http://www.bohemiancoding.com/sketch -->
    <title>Shape</title>
    <desc>Created with Sketch.</desc>
    <defs></defs>
    <g id="Mine" stroke="none" stroke-width="1" fill="none" fill-rule="evenodd">
        <g id="NAVIGATION-3" transform="translate(-30.000000, -77.000000)" fill="#FFFFFF">
            <path d="M34,77 C31.8,77 30,78.8 30,81 C30,83.2 31.8,85 34,85 C36.2,85 38,83.2 38,81 C38,78.8 36.2,77 34,77 L34,77 Z M34,101 C31.8,101 30,102.8 30,105 C30,107.2 31.8,109 34,109 C36.2,109 38,107.2 38,105 C38,102.8 36.2,101 34,101 L34,101 Z M58,85 C60.2,85 62,83.2 62,81 C62,78.8 60.2,77 58,77 C55.8,77 54,78.8 54,81 C54,83.2 55.8,85 58,85 L58,85 Z M58,101 C55.8,101 54,102.8 54,105 C54,107.2 55.8,109 58,109 C60.2,109 62,107.2 62,105 C62,102.8 60.2,101 58,101 L58,101 Z M46,89 C43.8,89 42,90.8 42,93 C42,95.2 43.8,97 46,97 C48.2,97 50,95.2 50,93 C50,90.8 48.2,89 46,89 L46,89 Z" id="Shape"></path>
        </g>
    </g>
</svg>