<?xml version="1.0" encoding="UTF-8" standalone="no"?>
<svg width="43px" height="42px" viewBox="0 0 43 42" version="1.1" xmlns="http://www.w3.org/2000/svg" xmlns:xlink="http://www.w3.org/1999/xlink">
    <!-- Generator: Sketch 39.1 (31720) - http://www.bohemiancoding.com/sketch -->
    <title>Facebook</title>
    <desc>Created with Sketch.</desc>
    <defs></defs>
    <g id="Mine" stroke="none" stroke-width="1" fill="none" fill-rule="evenodd">
        <g id="LOGIN" transform="translate(-184.000000, -1093.000000)" fill="#FFFFFF">
            <path d="M186.379557,1093 C185.063802,1093 184,1094.02712 184,1095.2975 L184,1132.21974 C184,1133.49012 185.063802,1134.51724 186.379557,1134.51724 L206.955729,1134.51724 L206.955729,1118.43472 L201.356771,1118.43472 L201.356771,1112.16388 L206.955729,1112.16388 L206.955729,1107.54185 C206.955729,1102.19001 210.371094,1099.27083 215.326172,1099.27083 C217.677734,1099.27083 219.721354,1099.43301 220.309245,1099.5141 L220.309245,1105.1092 L216.89388,1105.13622 C214.178385,1105.13622 213.674479,1106.35255 213.674479,1108.16352 L213.674479,1112.16388 L220.085286,1112.16388 L219.245443,1118.43472 L213.674479,1118.43472 L213.674479,1134.51724 L224.620443,1134.51724 C225.936198,1134.51724 227,1133.49012 227,1132.21974 L227,1095.2975 C227,1094.02712 225.936198,1093 224.620443,1093 L186.379557,1093 Z" id="Facebook"></path>
        </g>
    </g>
</svg>